<?xml version="1.0" standalone="no"?>
<!DOCTYPE svg PUBLIC "-//W3C//DTD SVG 1.1//EN" "http://www.w3.org/Graphics/SVG/1.1/DTD/svg11.dtd" >
<svg xmlns="http://www.w3.org/2000/svg">
<metadata></metadata>
<defs>
<font id="dinproblack" horiz-adv-x="1138" >
<font-face units-per-em="2048" ascent="1565" descent="-483" />
<missing-glyph horiz-adv-x="454" />
<glyph unicode="&#xfb01;" horiz-adv-x="1282" d="M51 801v258h101v96q0 60 20 115.5t59 104t107 77.5t156 29h178v-283h-117q-68 0 -68 -68v-71h185v-258h-185v-801h-335v801h-101zM819 0v1059h336v-1059h-336zM819 1214v256h336v-256h-336z" />
<glyph unicode="&#xfb02;" horiz-adv-x="1380" d="M51 801v258h101v96q0 60 20 115.5t59 104t107 77.5t156 29h178v-283h-117q-68 0 -68 -68v-71h185v-258h-185v-801h-335v801h-101zM819 326v1132h336v-1108q0 -67 68 -67h116v-283h-178q-88 0 -156 29t-107 77.5t-59 104t-20 115.5z" />
<glyph horiz-adv-x="0" />
<glyph horiz-adv-x="0" />
<glyph horiz-adv-x="682" />
<glyph unicode="&#xd;" horiz-adv-x="454" />
<glyph unicode=" "  horiz-adv-x="454" />
<glyph unicode="&#x09;" horiz-adv-x="454" />
<glyph unicode="&#xa0;" horiz-adv-x="454" />
<glyph unicode="!" horiz-adv-x="749" d="M205 1458h422l-90 -973h-242zM244 0v330h344v-330h-344z" />
<glyph unicode="&#x22;" horiz-adv-x="999" d="M117 979v479h301v-479h-301zM582 979v479h301v-479h-301z" />
<glyph unicode="#" horiz-adv-x="1460" d="M100 346v318h170l27 180h-119v317h170l49 314h357l-49 -314h184l49 314h356l-49 -314h119v-317h-170l-27 -180h119v-318h-170l-55 -346h-356l55 346h-185l-55 -346h-356l55 346h-119zM627 664h184l27 180h-185z" />
<glyph unicode="$" horiz-adv-x="1296" d="M10 180l230 230q99 -99 313 -103v271l-80 10q-191 24 -293 129q-100 103 -100 293q0 181 115 304.5t317 149.5v187h258v-183q259 -15 416 -172l-225 -225q-74 74 -232 84v-256l84 -12q192 -26 287 -121q108 -105 108 -320q0 -185 -121.5 -301t-316.5 -147v-231h-258v221 q-160 5 -282.5 48.5t-219.5 143.5zM426 1022q0 -39 29 -68q35 -35 98 -43v242q-63 -11 -95 -48.5t-32 -82.5zM729 313q127 24 127 125q0 57 -29 86q-29 31 -98 39v-250z" />
<glyph unicode="%" horiz-adv-x="1755" d="M92 991v195q0 138 89 211t220 73t220.5 -73t89.5 -211v-195q0 -138 -89.5 -211t-220.5 -73t-220 73t-89 211zM330 999q0 -79 71 -79q72 0 72 79v179q0 79 -72 79q-71 0 -71 -79v-179zM401 0l695 1458h258l-695 -1458h-258zM1044 272v195q0 138 89.5 211.5t220.5 73.5 q84 0 152 -29.5t112.5 -95.5t44.5 -160v-195q0 -138 -89 -211t-220 -73t-220.5 73t-89.5 211zM1282 281q0 -80 72 -80q71 0 71 80v178q0 80 -71 80q-72 0 -72 -80v-178z" />
<glyph unicode="&#x26;" horiz-adv-x="1454" d="M100 442q0 115 67.5 208t164.5 157q-27 30 -44.5 53t-42 63t-37.5 87t-13 98q0 165 111.5 263.5t316.5 98.5q190 0 298.5 -101t108.5 -265q0 -79 -35.5 -137.5t-107.5 -112.5q-66 -51 -103 -76l172 -198q55 63 68 211h315q-22 -293 -170 -457l285 -334h-422l-92 106 q-35 -26 -46.5 -34t-49 -29.5t-66.5 -29.5t-78.5 -16.5t-105.5 -8.5q-252 0 -373 117t-121 337zM424 444q0 -66 50.5 -109.5t119.5 -43.5q83 0 143 53l-227 260q-49 -34 -67.5 -70t-18.5 -90zM530 1100q0 -41 78 -119l49 35q58 41 58 86q0 38 -24 62t-68 24q-93 0 -93 -88z " />
<glyph unicode="'" horiz-adv-x="536" d="M117 979v479h303v-479h-303z" />
<glyph unicode="(" horiz-adv-x="733" d="M147 334v790q0 195 60 295q12 21 29 44t29 38.5t36.5 41.5t33.5 35l38.5 38.5l34.5 34.5l225 -226q-5 -5 -23 -22.5t-22.5 -22.5t-17 -18.5t-19 -22t-16 -22.5t-19.5 -29q-33 -58 -33 -176v-766q0 -118 33 -176q10 -15 19.5 -29t16 -22.5t19 -22t17 -18.5t22.5 -22.5 t23 -22.5l-225 -226l-34.5 34.5l-38.5 38.5t-33.5 35t-36.5 41.5t-29 38.5t-29 44q-60 100 -60 295z" />
<glyph unicode=")" horiz-adv-x="733" d="M100 33q5 5 23 22.5t22.5 22.5t17 18.5t19 22t16 22.5t19.5 29q33 58 33 176v766q0 118 -33 176q-10 15 -19.5 29t-16 22.5t-19 22t-17 18.5t-22.5 22.5t-23 22.5l226 226q5 -5 30 -29.5t32.5 -32.5t28.5 -30t31.5 -34.5t26.5 -32t28 -37.5t23 -36q60 -100 60 -295v-790 q0 -195 -60 -295q-11 -18 -23 -36t-28 -37.5t-26.5 -32t-31.5 -34.5t-28.5 -30t-32.5 -32.5t-30 -29.5z" />
<glyph unicode="*" horiz-adv-x="1036" d="M96 928l215 110l-215 111l115 199l203 -131l-11 241h230l-10 -241l202 131l115 -199l-215 -111l215 -110l-115 -199l-202 131l10 -242h-230l11 242l-203 -131z" />
<glyph unicode="+" d="M100 422v315h312v312h315v-312h311v-315h-311v-311h-315v311h-312z" />
<glyph unicode="," horiz-adv-x="589" d="M117 356h356v-458l-356 -263v721z" />
<glyph unicode="-" horiz-adv-x="872" d="M100 446v316h672v-316h-672z" />
<glyph unicode="." horiz-adv-x="602" d="M117 0v369h368v-369h-368z" />
<glyph unicode="/" horiz-adv-x="882" d="M0 -152l584 1762h311l-584 -1762h-311z" />
<glyph unicode="0" d="M100 442v574q0 109 39 197t105 143.5t149.5 84.5t175.5 29t175.5 -29t149.5 -84.5t105 -143.5t39 -197v-574q0 -109 -39 -197t-105 -143.5t-149.5 -84.5t-175.5 -29t-175.5 29t-149.5 84.5t-105 143.5t-39 197zM436 440q0 -73 37.5 -111t95.5 -38t95.5 38t37.5 111v576 q0 73 -38 112t-95 39t-95 -39t-38 -112v-576z" />
<glyph unicode="1" d="M184 829v359l312 270h335v-1458h-335v1100z" />
<glyph unicode="2" d="M109 0v303l528 574q41 44 57.5 77.5t16.5 77.5q0 62 -34 98.5t-97 36.5q-56 0 -96 -32t-40 -109h-335q0 139 65.5 241.5t171 152.5t234.5 50q206 0 336.5 -119t130.5 -321q0 -107 -41 -180.5t-140 -177.5l-348 -369h529v-303h-938z" />
<glyph unicode="3" d="M86 444h336q0 -74 41.5 -113.5t107.5 -39.5q68 0 109 39.5t41 115.5q0 66 -44.5 110t-111.5 44h-47v291h47q70 0 105 40.5t35 96.5q0 66 -39 102.5t-95 36.5q-55 0 -94 -37t-39 -100h-336q0 200 134 320t335 120q203 0 336 -122t133 -310t-151 -284q168 -116 168 -318 q0 -111 -39.5 -198t-108 -141t-154.5 -81.5t-184 -27.5q-95 0 -178.5 26t-154 78.5t-111.5 143t-41 208.5z" />
<glyph unicode="4" d="M53 193v319l484 946h368l-483 -946h235v193h320v-193h108v-319h-108v-193h-320v193h-604z" />
<glyph unicode="5" d="M102 444h336q16 -153 137 -153q58 0 95 37q43 43 43 170q0 115 -35.5 161t-102.5 46q-35 0 -60.5 -10t-40.5 -29t-22 -32t-14 -34h-309v858h889v-303h-584v-225q26 21 81 39t116 18q180 0 282 -102q82 -82 109 -174t27 -213q0 -137 -28.5 -221.5t-107.5 -163.5 q-125 -125 -338 -125q-114 0 -203 36.5t-143 90.5q-70 70 -94.5 148t-32.5 181z" />
<glyph unicode="6" d="M78 457q0 70 24 152.5t45 128t70 143.5l281 577h368l-288 -571q29 10 81 10q68 0 136 -29t125.5 -82t93 -139t35.5 -190q0 -113 -39 -203.5t-106 -147.5t-154.5 -87.5t-186.5 -30.5q-79 0 -151 19t-133 57.5t-105.5 93.5t-70 131.5t-25.5 167.5zM414 457 q0 -79 42.5 -122.5t106.5 -43.5q65 0 107.5 43.5t42.5 122.5t-42.5 122.5t-107.5 43.5q-64 0 -106.5 -43.5t-42.5 -122.5z" />
<glyph unicode="7" d="M70 926v532h999v-303l-455 -1155h-368l454 1155h-311v-229h-319z" />
<glyph unicode="8" d="M80 436q0 52 13 99t28 77t42.5 61t41.5 43.5t39 33.5q-27 23 -46 42.5t-46.5 56.5t-42.5 85t-15 104q0 133 67 233t174 149.5t234 49.5t234 -49.5t174 -149.5t67 -233q0 -45 -11 -87t-26 -70t-38 -56.5t-38 -42.5t-36 -32q25 -21 39 -33.5t41.5 -43.5t42.5 -61t28 -77 t13 -99q0 -110 -38.5 -197t-106 -141t-155.5 -82t-190 -28t-189.5 28t-155 82t-106 141t-38.5 197zM416 444q0 -63 45 -108t108 -45t108.5 45t45.5 108t-45.5 108.5t-108.5 45.5t-108 -45.5t-45 -108.5zM430 1028q0 -58 40 -98.5t99 -40.5t99.5 40.5t40.5 98.5t-40.5 98.5 t-99.5 40.5t-99 -40.5t-40 -98.5z" />
<glyph unicode="9" d="M90 1001q0 91 25.5 167.5t70 131.5t105.5 93.5t133 57.5t151 19q99 0 186.5 -30.5t154.5 -87.5t106 -147.5t39 -203.5q0 -53 -10 -105t-36 -116t-40.5 -94.5t-52.5 -107.5l-281 -578h-369l289 571q-29 -10 -82 -10q-68 0 -136 29t-125 82t-92.5 139t-35.5 190zM426 1001 q0 -79 42 -122t107 -43t107.5 43t42.5 122t-42.5 122.5t-107.5 43.5q-64 0 -106.5 -43.5t-42.5 -122.5z" />
<glyph unicode=":" horiz-adv-x="649" d="M164 0v369h368v-369h-368zM164 518v369h368v-369h-368z" />
<glyph unicode=";" horiz-adv-x="649" d="M164 518v369h368v-369h-368zM170 356h356v-458l-356 -263v721z" />
<glyph unicode="&#x3c;" d="M109 459v291l921 405v-354l-481 -197l481 -196v-355z" />
<glyph unicode="=" d="M100 197v315h938v-315h-938zM100 696v316h938v-316h-938z" />
<glyph unicode="&#x3e;" d="M109 53v355l481 196l-481 197v354l921 -405v-291z" />
<glyph unicode="?" horiz-adv-x="1101" d="M123 1038q0 102 36.5 185t100 136.5t146 82t176.5 28.5q92 0 174 -27.5t145.5 -80t101 -135.5t37.5 -187q0 -127 -104 -262l-141 -178q-37 -47 -37 -96v-19h-336v47q0 69 19 121.5t65 106.5l143 168q56 63 56 114q0 56 -31.5 90.5t-91.5 34.5q-62 0 -92.5 -35t-30.5 -94 h-336zM418 0v330h344v-330h-344z" />
<glyph unicode="@" horiz-adv-x="1605" d="M100 350v570q0 146 28.5 245.5t102.5 173.5t175.5 102.5t250.5 28.5h291q146 0 248.5 -28t177.5 -103q74 -74 102.5 -173t28.5 -246v-928l-309 8v82q-50 -49 -102.5 -71.5t-128.5 -22.5q-153 0 -246 90q-65 62 -81.5 143.5t-16.5 241.5q0 159 16.5 240.5t81.5 144.5 q93 90 244 90q136 0 223 -84v53q0 129 -66 195q-65 65 -194 65h-246q-130 0 -195 -65q-39 -39 -52 -85.5t-13 -109.5v-536q0 -62 16 -98t58 -78l-232 -232q-89 89 -125.5 171t-36.5 216zM940 463q0 -106 30 -151.5t93 -45.5t93 45.5t30 151.5t-30 151t-93 45t-93 -45 t-30 -151z" />
<glyph unicode="A" horiz-adv-x="1337" d="M0 0l530 1458h277l530 -1458h-374l-68 217h-449l-71 -217h-375zM547 516h254l-123 389z" />
<glyph unicode="B" horiz-adv-x="1337" d="M147 0v1458h605q223 0 344 -114.5t121 -307.5q0 -58 -17.5 -109t-46.5 -87t-51 -56t-45 -36q26 -16 42.5 -27.5t45.5 -41t46.5 -60t31.5 -81t14 -108.5q0 -203 -126.5 -316.5t-328.5 -113.5h-635zM506 322h242q68 0 99.5 38t31.5 91t-31.5 90t-99.5 37h-242v-256z M506 899h223q68 0 98.5 35t30.5 84t-30.5 84t-98.5 35h-223v-238z" />
<glyph unicode="C" horiz-adv-x="1247" d="M100 705v24q0 204 12 286q26 182 136 292q163 163 405 163q141 0 254.5 -50.5t193 -159t105.5 -265.5h-364q-20 72 -62.5 114t-124.5 42q-94 0 -141 -61q-29 -38 -42 -108t-13 -253t13 -252.5t42 -107.5q48 -62 141 -62q82 0 124.5 42t62.5 114h364 q-26 -157 -105.5 -265.5t-193 -159t-254.5 -50.5q-241 0 -405 164q-43 43 -72.5 97t-44 99t-22 117t-8.5 114t-1 126z" />
<glyph unicode="D" horiz-adv-x="1333" d="M147 0v1458h541q250 0 393 -143q25 -25 45.5 -52.5t35.5 -51t26.5 -55.5t19.5 -54t13 -58.5t7.5 -57.5t3.5 -62q2 -42 2 -62v-26v-40v-67v-67v-40v-26q0 -20 -1.5 -61.5t-4 -62.5t-7.5 -57.5t-13 -58.5t-19.5 -54t-26.5 -55.5t-35.5 -51t-45.5 -52.5q-143 -143 -393 -143 h-541zM506 319h158q117 0 172 82q23 32 30.5 91t7.5 237q0 177 -7.5 236.5t-30.5 91.5q-55 82 -172 82h-158v-820z" />
<glyph unicode="E" horiz-adv-x="1245" d="M147 0v1458h992v-319h-633v-244h541v-320h-541v-256h633v-319h-992z" />
<glyph unicode="F" horiz-adv-x="1220" d="M147 0v1458h992v-319h-633v-256h541v-320h-541v-563h-359z" />
<glyph unicode="G" horiz-adv-x="1325" d="M100 705v24q0 204 12 286q26 182 136 292q82 82 179 122.5t226 40.5q109 0 199.5 -27.5t153.5 -73t109 -109t71.5 -131t36.5 -142.5h-361q-22 85 -70.5 124.5t-138.5 39.5q-92 0 -141 -64q-28 -37 -40.5 -105.5t-12.5 -252.5t12.5 -253.5t40.5 -106.5q48 -62 141 -62 q105 0 160 58q55 55 55 155v21h-215v299h572v-203q0 -180 -33 -291t-115 -194q-89 -91 -191.5 -127.5t-232.5 -36.5q-241 0 -405 164q-43 43 -72.5 97t-44 99t-22 117t-8.5 114t-1 126z" />
<glyph unicode="H" horiz-adv-x="1392" d="M147 0v1458h359v-561h381v561h358v-1458h-358v578h-381v-578h-359z" />
<glyph unicode="I" horiz-adv-x="653" d="M147 0v1458h359v-1458h-359z" />
<glyph unicode="J" horiz-adv-x="1056" d="M-16 147l235 234q39 -39 73 -56.5t89 -17.5q87 0 138.5 50.5t51.5 150.5v950h359v-958q0 -125 -47 -225t-125.5 -161.5t-175 -93.5t-201.5 -32q-129 0 -219 35.5t-178 123.5z" />
<glyph unicode="K" horiz-adv-x="1378" d="M147 0v1458h355v-516l422 516h438l-498 -590l514 -868h-417l-336 598l-123 -141v-457h-355z" />
<glyph unicode="L" horiz-adv-x="1179" d="M147 0v1458h359v-1139h612v-319h-971z" />
<glyph unicode="M" horiz-adv-x="1654" d="M147 0v1458h353l327 -643l328 643h352v-1458h-358v698l-207 -360h-229l-207 360v-698h-359z" />
<glyph unicode="N" horiz-adv-x="1433" d="M147 0v1458h314l467 -733v733h358v-1458h-313l-467 733v-733h-359z" />
<glyph unicode="O" horiz-adv-x="1310" d="M100 705v24q0 204 12 286q26 182 136 292q82 82 179.5 122.5t227.5 40.5t228 -40.5t180 -122.5q31 -31 54.5 -67.5t39 -68.5t26 -78t16 -77.5t8 -86t3 -83.5t0.5 -90v-27v-27q0 -60 -0.5 -90t-3 -83.5t-8 -85.5t-16 -77.5t-26 -78t-39 -68.5t-54.5 -67q-82 -82 -180 -123 t-228 -41t-227.5 41t-179.5 123q-43 43 -72.5 97t-44 99t-22 117t-8.5 114t-1 126zM459 729q0 -184 12 -251.5t41 -104.5q51 -66 143 -66q93 0 144 66q29 37 41 104.5t12 251.5t-12.5 252.5t-40.5 105.5q-49 64 -144 64q-94 0 -143 -64q-28 -37 -40.5 -105.5t-12.5 -252.5z " />
<glyph unicode="P" horiz-adv-x="1284" d="M147 0v1458h578q118 0 214 -39.5t157 -105.5t94 -149.5t33 -174.5t-33 -174.5t-94 -149.5t-157 -105.5t-214 -39.5h-219v-520h-359zM506 842h203q70 0 112.5 43.5t42.5 103.5t-42.5 104t-112.5 44h-203v-295z" />
<glyph unicode="Q" horiz-adv-x="1310" d="M100 705v24q0 204 12 286q26 182 136 292q82 82 179.5 122.5t227.5 40.5t228 -40.5t180 -122.5q31 -31 54.5 -67.5t39 -68.5t26 -78t16 -77.5t8 -86t3 -83.5t0.5 -90v-27v-93t-2 -82.5t-7 -92t-14 -76t-24.5 -84.5t-36.5 -70l107 -106l-182 -182l-113 112 q-116 -67 -283 -67q-130 0 -227.5 41t-179.5 123q-43 43 -72.5 97t-44 99t-22 117t-8.5 114t-1 126zM459 729q0 -184 12 -251.5t41 -104.5q51 -66 143 -66q19 0 29 2l-92 92l182 183l70 -70q8 98 8 215q0 184 -12.5 252.5t-40.5 105.5q-49 64 -144 64q-94 0 -143 -64 q-28 -37 -40.5 -105.5t-12.5 -252.5z" />
<glyph unicode="R" horiz-adv-x="1335" d="M147 0v1458h578q118 0 214 -39.5t157 -105.5t94 -149.5t33 -174.5q0 -137 -69.5 -234.5t-168.5 -146.5l315 -608h-415l-258 543h-121v-543h-359zM506 842h203q70 0 112.5 43.5t42.5 103.5t-42.5 104t-112.5 44h-203v-295z" />
<glyph unicode="S" horiz-adv-x="1214" d="M10 180l230 230q53 -53 140.5 -78t184.5 -25q209 0 209 131q0 53 -29 86q-31 31 -96 39l-176 25q-194 27 -293 129q-100 103 -100 293q0 203 143.5 331.5t388.5 128.5q161 0 280.5 -41t211.5 -133l-225 -225q-31 31 -67 50t-76.5 26t-63.5 8.5t-59 1.5h-4h-3h-4 q-87 0 -131.5 -40.5t-44.5 -94.5q0 -39 29 -68q35 -35 100 -43l176 -24q192 -26 287 -121q108 -105 108 -320q0 -144 -77.5 -249.5t-203.5 -157t-282 -51.5q-181 0 -315 42t-238 150z" />
<glyph unicode="T" horiz-adv-x="1198" d="M61 1139v319h1076v-319h-359v-1139h-358v1139h-359z" />
<glyph unicode="U" horiz-adv-x="1351" d="M123 512v946h358v-938q0 -101 51.5 -157t141.5 -56t143 56.5t53 156.5v938h359v-946q0 -155 -75.5 -276t-201.5 -184.5t-278 -63.5t-277 63.5t-199.5 184.5t-74.5 276z" />
<glyph unicode="V" horiz-adv-x="1230" d="M0 1458h371l245 -815l242 815h373l-483 -1458h-267z" />
<glyph unicode="W" horiz-adv-x="1855" d="M0 1458h375l190 -770l236 770h254l235 -770l191 770h374l-399 -1458h-293l-235 719l-236 -719h-291z" />
<glyph unicode="X" horiz-adv-x="1298" d="M0 0l455 748l-426 710h407l213 -411l213 411h408l-426 -710l454 -748h-409l-240 449l-239 -449h-410z" />
<glyph unicode="Y" horiz-adv-x="1239" d="M0 1458h391l230 -524l227 524h391l-440 -864v-594h-359v594z" />
<glyph unicode="Z" horiz-adv-x="1112" d="M61 0v279l560 860h-535v319h965v-278l-562 -861h562v-319h-990z" />
<glyph unicode="[" horiz-adv-x="851" d="M147 -152v1762h623v-303h-287v-1155h287v-304h-623z" />
<glyph unicode="\" horiz-adv-x="882" d="M0 1573h311l572 -1725h-312z" />
<glyph unicode="]" horiz-adv-x="851" d="M82 -152v304h287v1155h-287v303h623v-1762h-623z" />
<glyph unicode="^" horiz-adv-x="1310" d="M117 768l383 707h311l383 -707h-354l-185 338l-184 -338h-354z" />
<glyph unicode="_" horiz-adv-x="1310" d="M0 -160h1311v-221h-1311v221z" />
<glyph unicode="`" horiz-adv-x="1024" d="M186 1618h344l101 -369h-203z" />
<glyph unicode="a" horiz-adv-x="1097" d="M55 346q0 64 22.5 120.5t66.5 101.5t117.5 71.5t168.5 26.5h223v28q0 74 -38.5 105.5t-127.5 31.5q-62 0 -98.5 -16t-77.5 -57l-209 209q84 84 172 115.5t230 31.5q238 0 361.5 -100t123.5 -299v-715h-327v90q-54 -54 -108 -77t-138 -23q-166 0 -264 98q-97 97 -97 258z M377 354q0 -39 28.5 -65.5t81.5 -26.5q52 0 79.5 8t54.5 33q32 29 32 111v28h-170q-49 0 -77.5 -24.5t-28.5 -63.5z" />
<glyph unicode="b" horiz-adv-x="1165" d="M127 0v1458h336v-436q92 92 246 92q79 0 149 -26.5t117 -73.5q30 -30 50 -72t30.5 -78.5t15.5 -96t5.5 -91.5t-0.5 -97v-28q0 -181 -9 -251q-20 -140 -92 -212q-47 -47 -118 -73.5t-150 -26.5q-84 0 -142.5 24.5t-111.5 77.5v-90h-326zM463 551q0 -54 2.5 -89.5 t10.5 -70.5t23 -55t40.5 -32.5t62.5 -12.5t62.5 12.5t40.5 32.5t23 55t10.5 70.5t2.5 89.5t-2.5 89.5t-10.5 70.5t-23 55t-40.5 32.5t-62.5 12.5t-62.5 -12.5t-40.5 -32.5t-23 -55t-10.5 -70.5t-2.5 -89.5z" />
<glyph unicode="c" horiz-adv-x="972" d="M78 551q0 138 34 242.5t85 164t120.5 96.5t130 48.5t125.5 11.5q222 0 363 -141l-227 -228q-66 66 -136 66q-61 0 -104 -43q-55 -58 -55 -217t55 -217q43 -43 104 -43q71 0 136 65l227 -227q-141 -141 -363 -141q-65 0 -125.5 11.5t-130 48.5t-120.5 96.5t-85 164 t-34 242.5z" />
<glyph unicode="d" horiz-adv-x="1165" d="M88 523v28q0 181 10 251q20 140 92 212q47 47 117.5 73.5t149.5 26.5q153 0 245 -92v436h336v-1458h-325v90q-53 -53 -111.5 -77.5t-142.5 -24.5q-80 0 -151 26.5t-118 73.5q-30 30 -50 72t-30.5 78.5t-15.5 96t-5.5 91.5t-0.5 97zM424 551q0 -54 2 -89.5t10.5 -70.5 t23.5 -55t40.5 -32.5t62.5 -12.5t62.5 12.5t40.5 32.5t23 55t10.5 70.5t2.5 89.5t-2.5 89.5t-10.5 70.5t-23 55t-40.5 32.5t-62.5 12.5t-62.5 -12.5t-40.5 -32.5t-23 -55t-10.5 -70.5t-2.5 -89.5z" />
<glyph unicode="e" horiz-adv-x="1144" d="M78 551q0 265 135.5 414t357.5 149q155 0 269 -71t170.5 -188t56.5 -263v-150h-659q0 -71 52 -121.5t142 -50.5q82 0 130 21.5t97 70.5l201 -200q-90 -90 -186 -132t-242 -42q-524 0 -524 563zM408 666h327q0 49 -18 86q-37 86 -146 86q-108 0 -145 -86q-18 -37 -18 -86z " />
<glyph unicode="f" horiz-adv-x="733" d="M61 801v258h101v96q0 60 20 115.5t59 104t107 77.5t156 29h178v-283h-117q-67 0 -67 -68v-71h184v-258h-184v-801h-336v801h-101z" />
<glyph unicode="g" horiz-adv-x="1148" d="M88 592q0 179 17 267.5t85 156.5q98 98 261 98q81 0 136 -24t109 -78v90h326v-1022q0 -197 -137 -323t-361 -126q-137 0 -234.5 31.5t-178.5 112.5l208 209q70 -70 189 -70q50 0 87 15.5t55.5 42t27 53.5t8.5 57v80q-92 -92 -237 -92q-161 0 -259 98q-68 68 -85 156.5 t-17 267.5zM424 592q0 -40 1.5 -66.5t9 -58.5t21 -50.5t38.5 -31t61 -12.5t61 12.5t38.5 31t21 50.5t9 58.5t1.5 66.5t-1.5 66.5t-9 58.5t-21 50.5t-38.5 31t-61 12.5t-61 -12.5t-38.5 -31t-21 -50.5t-9 -58.5t-1.5 -66.5z" />
<glyph unicode="h" horiz-adv-x="1173" d="M127 0v1458h336v-446q102 102 242 102q171 0 261.5 -111.5t90.5 -287.5v-715h-336v668q0 42 -13.5 72t-35 44.5t-41.5 20.5t-39 6t-39 -6t-41.5 -20.5t-35 -44.5t-13.5 -72v-668h-336z" />
<glyph unicode="i" horiz-adv-x="589" d="M127 0v1059h336v-1059h-336zM127 1214v256h336v-256h-336z" />
<glyph unicode="j" horiz-adv-x="589" d="M-57 -86h116q68 0 68 68v1077h336v-1102q0 -60 -20 -115.5t-59 -104t-107 -77.5t-156 -29h-178v283zM127 1214v256h336v-256h-336z" />
<glyph unicode="k" horiz-adv-x="1173" d="M127 0v1458h336v-741l297 385h403l-405 -457l416 -645h-416l-230 403l-65 -71v-332h-336z" />
<glyph unicode="l" horiz-adv-x="698" d="M117 326v1132h336v-1108q0 -67 67 -67h117v-283h-178q-88 0 -156 29t-107 77.5t-59 104t-20 115.5z" />
<glyph unicode="m" horiz-adv-x="1792" d="M127 0v1102h328v-90q49 49 118 75.5t138 26.5q165 0 268 -117q72 63 144 90t167 27q78 0 149 -25t115 -69q121 -121 121 -315v-705h-336v659q0 45 -14 77t-37 47t-43.5 21.5t-40.5 6.5t-40.5 -6.5t-43.5 -21.5t-37 -47t-14 -77v-659h-336v659q0 45 -14 77t-37 47 t-43.5 21.5t-40.5 6.5t-40.5 -6.5t-43.5 -21.5t-37 -47t-14 -77v-659h-336z" />
<glyph unicode="n" horiz-adv-x="1185" d="M127 0v1102h328v-90q49 49 118 75.5t138 26.5q153 0 247 -94q65 -65 88 -140t23 -175v-705h-336v659q0 45 -14 77t-37 47t-43.5 21.5t-40.5 6.5t-40.5 -6.5t-43.5 -21.5t-37 -47t-14 -77v-659h-336z" />
<glyph unicode="o" horiz-adv-x="1126" d="M88 551q0 162 26 255t95 167q133 141 354 141q222 0 355 -141q68 -74 94 -166.5t26 -255.5q0 -164 -26 -256t-94 -166q-133 -141 -355 -141q-221 0 -354 141q-69 75 -95 166.5t-26 255.5zM424 551q0 -93 9.5 -146t39.5 -83q31 -31 90 -31t90 31q30 30 39.5 83t9.5 146 t-9.5 146t-39.5 83q-31 31 -90 31t-90 -31q-30 -30 -39.5 -83t-9.5 -146z" />
<glyph unicode="p" horiz-adv-x="1165" d="M127 -356v1458h326v-90q53 53 111.5 77.5t142.5 24.5q79 0 150 -26.5t118 -73.5q30 -30 50 -72t30.5 -78.5t15.5 -96t5.5 -91.5t0.5 -97v-28q0 -181 -10 -251q-20 -140 -92 -212q-47 -47 -117 -73.5t-149 -26.5q-154 0 -246 92v-436h-336zM463 551q0 -54 2.5 -89.5 t10.5 -70.5t23 -55t40.5 -32.5t62.5 -12.5t62.5 12.5t40.5 32.5t23 55t10.5 70.5t2.5 89.5t-2.5 89.5t-10.5 70.5t-23 55t-40.5 32.5t-62.5 12.5t-62.5 -12.5t-40.5 -32.5t-23 -55t-10.5 -70.5t-2.5 -89.5z" />
<glyph unicode="q" horiz-adv-x="1165" d="M88 523v28q0 181 10 251q20 140 92 212q47 47 118 73.5t151 26.5q84 0 142.5 -24.5t111.5 -77.5v90h325v-1458h-336v436q-92 -92 -245 -92q-79 0 -149.5 26.5t-117.5 73.5q-30 30 -50 72t-30.5 78.5t-15.5 96t-5.5 91.5t-0.5 97zM424 551q0 -54 2.5 -89.5t10.5 -70.5 t23 -55t40.5 -32.5t62.5 -12.5t62.5 12.5t40.5 32.5t23 55t10.5 70.5t2.5 89.5t-2.5 89.5t-10.5 70.5t-23 55t-40.5 32.5t-62.5 12.5t-62.5 -12.5t-40.5 -32.5t-23 -55t-10.5 -70.5t-2.5 -89.5z" />
<glyph unicode="r" horiz-adv-x="972" d="M127 0v1102h328v-90q42 42 111 72t149 30q83 0 142.5 -23t115.5 -79l-254 -258q-29 29 -55.5 43t-65.5 14q-20 0 -40.5 -6.5t-43 -22t-37 -47.5t-14.5 -76v-659h-336z" />
<glyph unicode="s" horiz-adv-x="1032" d="M20 147l218 218q93 -93 268 -93q21 0 43.5 3.5t46 11t38.5 22.5t15 35q0 63 -80 70l-170 16q-319 30 -319 320q0 88 37.5 159t100 115t139.5 67t161 23q148 0 252.5 -29t181.5 -106l-207 -207q-66 66 -233 66q-55 0 -82 -20.5t-27 -43.5v-10.5t3.5 -13t10 -16.5t22 -12.5 t36.5 -8.5l170 -17q167 -17 249.5 -107t82.5 -229q0 -94 -38 -167t-105 -117t-151 -66t-183 -22q-61 0 -100.5 2t-95.5 10.5t-98.5 24.5t-92 47t-93.5 75z" />
<glyph unicode="t" horiz-adv-x="743" d="M51 801v258h101v315h335v-315h175v-258h-175v-451q0 -67 68 -67h107v-283h-168q-88 0 -156 29t-107 77.5t-59 104t-20 115.5v475h-101z" />
<glyph unicode="u" horiz-adv-x="1185" d="M117 397v705h336v-660q0 -36 10 -64t24.5 -44t33.5 -26t35.5 -13.5t31.5 -3.5t31.5 3.5t35.5 13.5t33.5 26t24.5 44t10 64v660h336v-1102h-328v90q-49 -49 -118 -75.5t-138 -26.5q-154 0 -248 94q-65 65 -87.5 140t-22.5 175z" />
<glyph unicode="v" horiz-adv-x="1067" d="M0 1102h352l183 -572l180 572h352l-405 -1102h-256z" />
<glyph unicode="w" horiz-adv-x="1597" d="M0 1102h354l138 -572l190 572h233l191 -572l137 572h354l-331 -1102h-269l-198 604l-199 -604h-268z" />
<glyph unicode="x" d="M0 0l383 563l-369 539h404l149 -266l154 266h403l-368 -539l383 -563h-404l-168 279l-164 -279h-403z" />
<glyph unicode="y" horiz-adv-x="1052" d="M0 1102h352l187 -572l178 572h352l-457 -1233q-34 -93 -86 -145q-88 -93 -247 -93h-127v303h71q47 0 71.5 16.5t41.5 65.5l31 93z" />
<glyph unicode="z" horiz-adv-x="1001" d="M61 0v248l420 551h-395v303h834v-248l-428 -551h428v-303h-859z" />
<glyph unicode="{" horiz-adv-x="1060" d="M82 578v303h119q77 0 114 37q35 35 35 122v244q0 141 99 240q86 86 243 86h287v-303h-143q-88 0 -117 -29q-33 -33 -33 -131v-213q0 -58 -16.5 -99.5t-45 -62.5t-46 -29t-41.5 -14q24 -6 41.5 -14t46 -29t45 -62.5t16.5 -99.5v-213q0 -98 33 -131q28 -28 117 -28h143 v-304h-287q-157 0 -243 86q-99 99 -99 240v244q0 88 -35 123q-37 37 -114 37h-119z" />
<glyph unicode="|" horiz-adv-x="745" d="M205 -152v1762h336v-1762h-336z" />
<glyph unicode="}" horiz-adv-x="1060" d="M82 -152v304h143q89 0 117 28q33 33 33 131v213q0 58 16.5 99.5t45 62.5t46 29t41.5 14q-24 6 -41.5 14t-46 29t-45 62.5t-16.5 99.5v213q0 98 -33 131q-29 29 -117 29h-143v303h287q157 0 243 -86q99 -99 99 -240v-244q0 -88 34 -122q37 -37 115 -37h119v-303h-119 q-78 0 -115 -37q-34 -34 -34 -123v-244q0 -141 -99 -240q-86 -86 -243 -86h-287z" />
<glyph unicode="~" horiz-adv-x="1323" d="M61 633q104 104 189 150t190 46q72 0 128 -14.5t124 -54.5q86 -51 172 -51q48 0 88.5 16.5t91.5 67.5l218 -213q-104 -104 -191 -150.5t-192 -46.5q-71 0 -127.5 15t-124.5 55q-86 51 -172 51q-48 0 -89 -16.5t-92 -67.5z" />
<glyph unicode="&#xa1;" horiz-adv-x="749" d="M123 -356l90 972h242l90 -972h-422zM162 772v330h344v-330h-344z" />
<glyph unicode="&#xa2;" horiz-adv-x="1021" d="M78 750q0 233 106 371.5t275 176.5v160h258v-160q149 -36 268 -155l-219 -219q-51 51 -90 67v-483q39 16 90 67l219 -219q-119 -119 -268 -155v-201h-258v201q-168 38 -274.5 177t-106.5 372zM414 750q0 -150 59 -215q17 -17 27 -23v475q-20 -15 -25 -20 q-61 -64 -61 -217z" />
<glyph unicode="&#xa3;" horiz-adv-x="1222" d="M72 569v258h123v131q0 101 30.5 186t83 144t123 101t149 61.5t162.5 19.5q129 0 219.5 -35.5t178.5 -123.5l-236 -234q-39 39 -73 56.5t-89 17.5q-87 0 -138.5 -50.5t-51.5 -150.5v-123h190v-258h-190v-250h588v-319h-946v569h-123z" />
<glyph unicode="&#xa4;" horiz-adv-x="1380" d="M96 233l150 150q-53 109 -53 221t53 221l-150 150l223 223l150 -149q109 53 221 53t221 -53l150 149l223 -223l-149 -150q53 -109 53 -221t-53 -221l149 -150l-223 -223l-150 150q-111 -54 -221 -54t-221 54l-150 -150zM496 604q0 -80 57 -137t137 -57t137.5 57.5 t57.5 136.5q0 80 -57.5 137.5t-137.5 57.5q-79 0 -136.5 -57.5t-57.5 -137.5z" />
<glyph unicode="&#xa5;" horiz-adv-x="1239" d="M0 1458h391l230 -524l227 524h391l-256 -504h123v-258h-256l-51 -102v-102h307v-259h-307v-233h-359v233h-307v259h307v102l-51 102h-256v258h123z" />
<glyph unicode="&#xa6;" horiz-adv-x="745" d="M205 -152v717h336v-717h-336zM205 893v717h336v-717h-336z" />
<glyph unicode="&#xa7;" horiz-adv-x="1056" d="M92 559q0 95 54.5 171.5t115.5 115.5q-135 81 -135 258q0 54 13.5 105t45 99t77.5 83.5t116 57t156 21.5q108 0 189 -30t127.5 -82.5t68.5 -117t22 -140.5h-311q0 44 -27 65t-69 21q-48 0 -72.5 -22t-24.5 -50q0 -56 115 -98l111 -41q83 -31 136 -61t94.5 -75t60 -107 t18.5 -148q0 -66 -31.5 -129t-65.5 -98.5t-69 -59.5q67 -40 106 -103.5t39 -173.5q0 -80 -25 -146t-66 -110.5t-96.5 -75t-114 -44t-120.5 -13.5q-79 0 -150.5 20.5t-134 63t-99.5 119.5t-37 180h319q0 -36 27.5 -63t74.5 -27q48 0 75.5 24.5t27.5 59.5q0 74 -121 119 l-111 41q-83 31 -136 61t-94.5 75t-60 107t-18.5 148zM412 571q0 -72 41 -108q31 -27 79 -27t80 27q41 36 41 108q0 73 -41 109q-32 27 -80 27t-79 -27q-41 -36 -41 -109z" />
<glyph unicode="&#xa8;" horiz-adv-x="1024" d="M143 1247v297h275v-297h-275zM606 1247v297h275v-297h-275z" />
<glyph unicode="&#xa9;" horiz-adv-x="1683" d="M100 729q0 202 99.5 372.5t270 269.5t372.5 99q151 0 288.5 -58.5t236.5 -157.5t157.5 -236.5t58.5 -288.5t-58.5 -288.5t-157.5 -236.5t-236.5 -157.5t-288.5 -58.5q-202 0 -372.5 99t-270 269.5t-99.5 372.5zM311 729q0 -157 69.5 -281.5t190.5 -193t271 -68.5 t271 68.5t190 193t69 281.5t-69 281.5t-190 193t-271 68.5t-271 -68.5t-190.5 -193t-69.5 -281.5zM489 729q0 80 21 146.5t56.5 111.5t83.5 76t100.5 45t109.5 14q145 0 270 -106l-137 -137q-36 30 -65 42.5t-68 12.5q-73 0 -116.5 -52.5t-43.5 -152.5t43.5 -152.5 t116.5 -52.5q38 0 67 12.5t66 43.5l137 -138q-125 -106 -270 -106q-57 0 -109.5 14t-100.5 45t-83.5 76t-56.5 111.5t-21 146.5z" />
<glyph unicode="&#xaa;" horiz-adv-x="935" d="M88 856q0 109 75.5 182.5t223.5 73.5h178v23q0 60 -31 85t-102 25q-50 0 -77.5 -12.5t-61.5 -46.5l-168 168q66 66 136.5 91t184.5 25q388 0 388 -319v-571h-263v71q-42 -42 -85.5 -61t-110.5 -19q-129 0 -209 80q-78 78 -78 205zM348 864q0 -31 22 -51t62 -20 q43 0 65.5 5.5t41.5 24.5q26 26 26 86v25h-135q-38 0 -60 -20t-22 -50z" />
<glyph unicode="&#xab;" horiz-adv-x="1376" d="M61 573l560 553v-395l-162 -158l162 -159v-396zM694 573l559 553v-395l-166 -158l166 -159v-396z" />
<glyph unicode="&#xac;" d="M88 487v316h963v-623h-316v307h-647z" />
<glyph unicode="&#xad;" horiz-adv-x="872" d="M100 446v316h672v-316h-672z" />
<glyph unicode="&#xae;" horiz-adv-x="1683" d="M100 729q0 202 99.5 372.5t270 269.5t372.5 99q151 0 288.5 -58.5t236.5 -157.5t157.5 -236.5t58.5 -288.5t-58.5 -288.5t-157.5 -236.5t-236.5 -157.5t-288.5 -58.5q-202 0 -372.5 99t-270 269.5t-99.5 372.5zM311 729q0 -157 69.5 -281.5t190.5 -193t271 -68.5 t271 68.5t190 193t69 281.5t-69 281.5t-190 193t-271 68.5t-271 -68.5t-190.5 -193t-69.5 -281.5zM557 342v774h346q123 0 193.5 -74t70.5 -176q0 -72 -36 -122.5t-89 -77.5l146 -324h-240l-117 289h-63v-289h-211zM768 788h106q37 0 59.5 23t22.5 55t-22.5 55t-59.5 23 h-106v-156z" />
<glyph unicode="&#xaf;" horiz-adv-x="1024" d="M178 1288v215h668v-215h-668z" />
<glyph unicode="&#xb0;" horiz-adv-x="995" d="M96 1094q0 166 118 283.5t284 117.5t283.5 -117.5t117.5 -283.5t-117.5 -284t-283.5 -118t-284 118t-118 284zM365 1094q0 -56 38.5 -94.5t94.5 -38.5t94.5 38.5t38.5 94.5t-38.5 94.5t-94.5 38.5t-94.5 -38.5t-38.5 -94.5z" />
<glyph unicode="&#xb1;" d="M100 0v315h938v-315h-938zM100 760v315h312v311h315v-311h311v-315h-311v-311h-315v311h-312z" />
<glyph unicode="&#xb2;" horiz-adv-x="751" d="M82 584v213l309 315q26 26 35.5 42t9.5 40q0 27 -16 43t-43 16q-58 0 -58 -61h-237q0 130 85.5 202t209.5 72q129 0 211 -73t82 -199q0 -68 -28 -115.5t-93 -111.5l-178 -170h299v-213h-588z" />
<glyph unicode="&#xb3;" horiz-adv-x="768" d="M82 862h235q-1 -35 17 -54.5t49 -19.5t48.5 18.5t17.5 53.5q0 28 -20 49t-48 21h-33v203h33q30 0 45.5 19.5t15.5 39.5q0 29 -16.5 45t-40.5 16t-41 -16.5t-16 -46.5h-238q-1 124 84.5 200t210.5 76q126 0 209.5 -75.5t83.5 -190.5q0 -45 -15 -80.5t-29 -50.5t-38 -33 q20 -19 30 -30t27 -35t25 -53.5t8 -65.5q0 -91 -43.5 -155.5t-110.5 -93t-149 -28.5q-58 0 -110 16t-96 48.5t-70 90t-25 132.5z" />
<glyph unicode="&#xb4;" horiz-adv-x="1024" d="M393 1249l101 369h344l-242 -369h-203z" />
<glyph unicode="&#xb5;" horiz-adv-x="1196" d="M127 -356v1458h336v-660q0 -36 10 -64t24.5 -44t33.5 -26t35.5 -13.5t31.5 -3.5t31.5 3.5t35.5 13.5t33.5 26t24.5 44t10 64v660h336v-1102h-328v90q-49 -49 -118 -75.5t-138 -26.5h-22v-344h-336z" />
<glyph unicode="&#xb6;" horiz-adv-x="1447" d="M61 1030q0 144 65.5 242t174 142t254.5 44h745v-1814h-335v1495h-185v-1495h-336v966q-68 0 -136.5 32t-123 86.5t-89 134t-34.5 167.5z" />
<glyph unicode="&#xb7;" horiz-adv-x="602" d="M117 420v368h368v-368h-368z" />
<glyph unicode="&#xb8;" horiz-adv-x="1024" d="M309 -410l137 295h236l-74 -295h-299z" />
<glyph unicode="&#xb9;" horiz-adv-x="636" d="M72 1024v266l194 168h238v-874h-238v608z" />
<glyph unicode="&#xba;" horiz-adv-x="954" d="M96 1020q0 129 22 203.5t77 134.5q104 112 282 112q179 0 283 -112q55 -60 76.5 -134t21.5 -204q0 -131 -21.5 -204.5t-76.5 -133.5q-105 -113 -283 -113q-177 0 -282 113q-56 60 -77.5 134t-21.5 204zM367 1020q0 -75 7.5 -117.5t31.5 -66.5q25 -25 71 -25q47 0 72 25 q24 24 31.5 66.5t7.5 117.5t-7.5 117.5t-31.5 66.5q-25 25 -72 25q-46 0 -71 -25q-24 -24 -31.5 -66.5t-7.5 -117.5z" />
<glyph unicode="&#xbb;" horiz-adv-x="1376" d="M123 18v396l164 159l-164 158v395l559 -553zM756 18v396l162 159l-162 158v395l559 -553z" />
<glyph unicode="&#xbc;" horiz-adv-x="1783" d="M72 1024v266l194 168h238v-874h-238v608zM397 0l695 1458h258l-695 -1458h-258zM1059 109v225l282 540h261l-285 -540h108v76h224v-76h53v-225h-53v-109h-224v109h-366z" />
<glyph unicode="&#xbd;" horiz-adv-x="1851" d="M72 1024v266l194 168h238v-874h-238v608zM397 0l695 1458h258l-695 -1458h-258zM1182 0v213l309 315q26 26 35.5 42t9.5 40q0 27 -16 43.5t-43 16.5q-58 0 -58 -62h-237q0 130 85.5 202.5t209.5 72.5q129 0 210.5 -73.5t81.5 -199.5q0 -69 -27.5 -116.5t-92.5 -110.5 l-179 -170h299v-213h-587z" />
<glyph unicode="&#xbe;" horiz-adv-x="1824" d="M82 862h235q-1 -35 17 -54.5t49 -19.5t48.5 18.5t17.5 53.5q0 28 -20 49t-48 21h-33v203h33q30 0 45.5 19.5t15.5 39.5q0 29 -16.5 45t-40.5 16t-41 -16.5t-16 -46.5h-238q-1 124 84.5 200t210.5 76q126 0 209.5 -75.5t83.5 -190.5q0 -45 -15 -80.5t-29 -50.5t-38 -33 q20 -19 30 -30t27 -35t25 -53.5t8 -65.5q0 -91 -43.5 -155.5t-110.5 -93t-149 -28.5q-58 0 -110 16t-96 48.5t-70 90t-25 132.5zM438 0l695 1458h258l-695 -1458h-258zM1100 109v225l282 540h260l-284 -540h108v76h224v-76h53v-225h-53v-109h-224v109h-366z" />
<glyph unicode="&#xbf;" horiz-adv-x="1101" d="M61 61q0 127 105 263l141 178q37 47 37 96v18h336v-47q0 -69 -19 -121t-65 -106l-143 -168q-56 -63 -56 -115q0 -56 31.5 -90.5t91.5 -34.5q62 0 92.5 35t30.5 94h336q0 -102 -36.5 -185t-100 -136.5t-146 -82t-176.5 -28.5q-124 0 -226.5 47t-167.5 146.5t-65 236.5z M340 772v330h344v-330h-344z" />
<glyph unicode="&#xc0;" horiz-adv-x="1337" d="M0 0l530 1458h277l530 -1458h-374l-68 217h-449l-71 -217h-375zM342 1970h344l100 -368h-202zM547 516h254l-123 389z" />
<glyph unicode="&#xc1;" horiz-adv-x="1337" d="M0 0l530 1458h277l530 -1458h-374l-68 217h-449l-71 -217h-375zM547 516h254l-123 389zM549 1602l100 368h344l-241 -368h-203z" />
<glyph unicode="&#xc2;" horiz-adv-x="1337" d="M0 0l530 1458h277l530 -1458h-374l-68 217h-449l-71 -217h-375zM260 1602l279 366h258l278 -366h-246l-161 170l-162 -170h-246zM547 516h254l-123 389z" />
<glyph unicode="&#xc3;" horiz-adv-x="1337" d="M0 0l530 1458h277l530 -1458h-374l-68 217h-449l-71 -217h-375zM272 1780q69 69 125 99t125 30q92 0 166 -45q59 -35 113 -35q32 0 58.5 10.5t60.5 44.5l143 -141q-69 -69 -125.5 -99t-126.5 -30q-92 0 -166 45q-59 35 -115 35q-32 0 -58 -11t-60 -45zM547 516h254 l-123 389z" />
<glyph unicode="&#xc4;" horiz-adv-x="1337" d="M0 0l530 1458h277l530 -1458h-374l-68 217h-449l-71 -217h-375zM299 1599v297h274v-297h-274zM547 516h254l-123 389zM762 1599v297h274v-297h-274z" />
<glyph unicode="&#xc5;" horiz-adv-x="1337" d="M0 0l530 1458h277l530 -1458h-374l-68 217h-449l-71 -217h-375zM385 1829q0 117 83 199.5t200 82.5t199.5 -82t82.5 -200q0 -117 -82.5 -200t-199.5 -83t-200 83t-83 200zM547 516h254l-123 389zM561 1829q0 -43 32 -75t75 -32t74.5 32t31.5 75t-31.5 74.5t-74.5 31.5 t-75 -31.5t-32 -74.5z" />
<glyph unicode="&#xc6;" horiz-adv-x="2074" d="M0 0l758 1458h1210v-319h-633v-244h541v-320h-541v-256h633v-319h-991v305h-434l-158 -305h-385zM698 604h279v535z" />
<glyph unicode="&#xc7;" horiz-adv-x="1247" d="M100 705v24q0 204 12 286q26 182 136 292q163 163 405 163q141 0 254.5 -50.5t193 -159t105.5 -265.5h-364q-20 72 -62.5 114t-124.5 42q-94 0 -141 -61q-29 -38 -42 -108t-13 -253t13 -252.5t42 -107.5q48 -62 141 -62q82 0 124.5 42t62.5 114h364 q-26 -157 -105.5 -265.5t-193 -159t-254.5 -50.5q-241 0 -405 164q-43 43 -72.5 97t-44 99t-22 117t-8.5 114t-1 126zM416 -410l137 295h235l-73 -295h-299z" />
<glyph unicode="&#xc8;" horiz-adv-x="1245" d="M147 0v1458h992v-319h-633v-244h541v-320h-541v-256h633v-319h-992zM305 1970h344l101 -368h-203z" />
<glyph unicode="&#xc9;" horiz-adv-x="1245" d="M147 0v1458h992v-319h-633v-244h541v-320h-541v-256h633v-319h-992zM512 1602l100 368h344l-241 -368h-203z" />
<glyph unicode="&#xca;" horiz-adv-x="1245" d="M147 0v1458h992v-319h-633v-244h541v-320h-541v-256h633v-319h-992zM223 1602l279 366h258l278 -366h-245l-162 170l-162 -170h-246z" />
<glyph unicode="&#xcb;" horiz-adv-x="1245" d="M147 0v1458h992v-319h-633v-244h541v-320h-541v-256h633v-319h-992zM262 1599v297h275v-297h-275zM725 1599v297h274v-297h-274z" />
<glyph unicode="&#xcc;" horiz-adv-x="653" d="M2 1970h344l100 -368h-202zM147 0v1458h359v-1458h-359z" />
<glyph unicode="&#xcd;" horiz-adv-x="653" d="M147 0v1458h359v-1458h-359zM207 1602l100 368h344l-241 -368h-203z" />
<glyph unicode="&#xce;" horiz-adv-x="653" d="M-78 1602l279 366h258l278 -366h-245l-162 170l-162 -170h-246zM147 0v1458h359v-1458h-359z" />
<glyph unicode="&#xcf;" horiz-adv-x="653" d="M-39 1599v297h275v-297h-275zM147 0v1458h359v-1458h-359zM424 1599v297h274v-297h-274z" />
<glyph unicode="&#xd0;" horiz-adv-x="1390" d="M72 600v274h133v584h540q251 0 394 -143q28 -28 50 -56t37.5 -61t27 -58t18.5 -65t11 -62t5.5 -69t2 -67t0 -74.5t-0.5 -73.5t0.5 -73.5t0 -74.5t-2 -67t-5.5 -69t-11 -62t-18.5 -65t-27 -58t-37.5 -61t-50 -56q-143 -143 -394 -143h-540v600h-133zM563 319h158 q117 0 172 82q23 33 31 92t8 236q0 176 -8 235.5t-31 92.5q-55 82 -172 82h-158v-265h185v-274h-185v-281z" />
<glyph unicode="&#xd1;" horiz-adv-x="1433" d="M147 0v1458h314l467 -733v733h358v-1458h-313l-467 733v-733h-359zM322 1780q69 69 124.5 99t124.5 30q92 0 166 -45q59 -35 113 -35q32 0 58.5 10.5t60.5 44.5l143 -141q-69 -69 -125.5 -99t-126.5 -30q-92 0 -166 45q-59 35 -114 35q-32 0 -58.5 -11t-60.5 -45z" />
<glyph unicode="&#xd2;" horiz-adv-x="1310" d="M100 705v24q0 204 12 286q26 182 136 292q82 82 179.5 122.5t227.5 40.5t228 -40.5t180 -122.5q31 -31 54.5 -67.5t39 -68.5t26 -78t16 -77.5t8 -86t3 -83.5t0.5 -90v-27v-27q0 -60 -0.5 -90t-3 -83.5t-8 -85.5t-16 -77.5t-26 -78t-39 -68.5t-54.5 -67q-82 -82 -180 -123 t-228 -41t-227.5 41t-179.5 123q-43 43 -72.5 97t-44 99t-22 117t-8.5 114t-1 126zM330 1970h344l100 -368h-203zM459 729q0 -184 12 -251.5t41 -104.5q51 -66 143 -66q93 0 144 66q29 37 41 104.5t12 251.5t-12.5 252.5t-40.5 105.5q-49 64 -144 64q-94 0 -143 -64 q-28 -37 -40.5 -105.5t-12.5 -252.5z" />
<glyph unicode="&#xd3;" horiz-adv-x="1310" d="M100 705v24q0 204 12 286q26 182 136 292q82 82 179.5 122.5t227.5 40.5t228 -40.5t180 -122.5q31 -31 54.5 -67.5t39 -68.5t26 -78t16 -77.5t8 -86t3 -83.5t0.5 -90v-27v-27q0 -60 -0.5 -90t-3 -83.5t-8 -85.5t-16 -77.5t-26 -78t-39 -68.5t-54.5 -67q-82 -82 -180 -123 t-228 -41t-227.5 41t-179.5 123q-43 43 -72.5 97t-44 99t-22 117t-8.5 114t-1 126zM459 729q0 -184 12 -251.5t41 -104.5q51 -66 143 -66q93 0 144 66q29 37 41 104.5t12 251.5t-12.5 252.5t-40.5 105.5q-49 64 -144 64q-94 0 -143 -64q-28 -37 -40.5 -105.5t-12.5 -252.5z M537 1602l100 368h344l-242 -368h-202z" />
<glyph unicode="&#xd4;" horiz-adv-x="1310" d="M100 705v24q0 204 12 286q26 182 136 292q82 82 179.5 122.5t227.5 40.5t228 -40.5t180 -122.5q31 -31 54.5 -67.5t39 -68.5t26 -78t16 -77.5t8 -86t3 -83.5t0.5 -90v-27v-27q0 -60 -0.5 -90t-3 -83.5t-8 -85.5t-16 -77.5t-26 -78t-39 -68.5t-54.5 -67q-82 -82 -180 -123 t-228 -41t-227.5 41t-179.5 123q-43 43 -72.5 97t-44 99t-22 117t-8.5 114t-1 126zM248 1602l278 366h258l279 -366h-246l-162 170l-161 -170h-246zM459 729q0 -184 12 -251.5t41 -104.5q51 -66 143 -66q93 0 144 66q29 37 41 104.5t12 251.5t-12.5 252.5t-40.5 105.5 q-49 64 -144 64q-94 0 -143 -64q-28 -37 -40.5 -105.5t-12.5 -252.5z" />
<glyph unicode="&#xd5;" horiz-adv-x="1310" d="M100 705v24q0 204 12 286q26 182 136 292q82 82 179.5 122.5t227.5 40.5t228 -40.5t180 -122.5q31 -31 54.5 -67.5t39 -68.5t26 -78t16 -77.5t8 -86t3 -83.5t0.5 -90v-27v-27q0 -60 -0.5 -90t-3 -83.5t-8 -85.5t-16 -77.5t-26 -78t-39 -68.5t-54.5 -67q-82 -82 -180 -123 t-228 -41t-227.5 41t-179.5 123q-43 43 -72.5 97t-44 99t-22 117t-8.5 114t-1 126zM260 1780q69 69 125 99t125 30q92 0 166 -45q59 -35 112 -35q32 0 58.5 10.5t60.5 44.5l144 -141q-69 -69 -125.5 -99t-126.5 -30q-92 0 -166 45q-59 35 -115 35q-32 0 -58.5 -11t-60.5 -45 zM459 729q0 -184 12 -251.5t41 -104.5q51 -66 143 -66q93 0 144 66q29 37 41 104.5t12 251.5t-12.5 252.5t-40.5 105.5q-49 64 -144 64q-94 0 -143 -64q-28 -37 -40.5 -105.5t-12.5 -252.5z" />
<glyph unicode="&#xd6;" horiz-adv-x="1310" d="M100 705v24q0 204 12 286q26 182 136 292q82 82 179.5 122.5t227.5 40.5t228 -40.5t180 -122.5q31 -31 54.5 -67.5t39 -68.5t26 -78t16 -77.5t8 -86t3 -83.5t0.5 -90v-27v-27q0 -60 -0.5 -90t-3 -83.5t-8 -85.5t-16 -77.5t-26 -78t-39 -68.5t-54.5 -67q-82 -82 -180 -123 t-228 -41t-227.5 41t-179.5 123q-43 43 -72.5 97t-44 99t-22 117t-8.5 114t-1 126zM287 1599v297h274v-297h-274zM459 729q0 -184 12 -251.5t41 -104.5q51 -66 143 -66q93 0 144 66q29 37 41 104.5t12 251.5t-12.5 252.5t-40.5 105.5q-49 64 -144 64q-94 0 -143 -64 q-28 -37 -40.5 -105.5t-12.5 -252.5zM750 1599v297h274v-297h-274z" />
<glyph unicode="&#xd7;" d="M80 330l278 274l-278 277l213 213l274 -277l277 277l215 -213l-279 -277l279 -274l-213 -213l-277 276l-274 -276z" />
<glyph unicode="&#xd8;" horiz-adv-x="1310" d="M100 705v24q0 204 12 286q26 182 136 292q82 82 179.5 122.5t227.5 40.5q127 0 215 -36l56 114h241l-112 -233l8 -8q31 -31 54.5 -67.5t39 -68.5t26 -78t16 -77.5t8 -86t3 -83.5t0.5 -90v-27v-27q0 -60 -0.5 -90t-3 -83.5t-8 -85.5t-16 -77.5t-26 -78t-39 -68.5 t-54.5 -67q-82 -82 -180 -123t-228 -41q-125 0 -215 37l-55 -115h-242l113 233l-8 9q-43 43 -72.5 97t-44 99t-22 117t-8.5 114t-1 126zM459 729q0 -119 6 -190l280 591q-44 21 -90 21q-94 0 -143 -64q-28 -37 -40.5 -105.5t-12.5 -252.5zM565 330q41 -23 90 -23 q93 0 144 66q29 37 41 104.5t12 251.5q0 121 -6 191z" />
<glyph unicode="&#xd9;" horiz-adv-x="1351" d="M123 512v946h358v-938q0 -101 51.5 -157t141.5 -56t143 56.5t53 156.5v938h359v-946q0 -155 -75.5 -276t-201.5 -184.5t-278 -63.5t-277 63.5t-199.5 184.5t-74.5 276zM350 1970h344l101 -368h-203z" />
<glyph unicode="&#xda;" horiz-adv-x="1351" d="M123 512v946h358v-938q0 -101 51.5 -157t141.5 -56t143 56.5t53 156.5v938h359v-946q0 -155 -75.5 -276t-201.5 -184.5t-278 -63.5t-277 63.5t-199.5 184.5t-74.5 276zM557 1602l100 368h344l-241 -368h-203z" />
<glyph unicode="&#xdb;" horiz-adv-x="1351" d="M123 512v946h358v-938q0 -101 51.5 -157t141.5 -56t143 56.5t53 156.5v938h359v-946q0 -155 -75.5 -276t-201.5 -184.5t-278 -63.5t-277 63.5t-199.5 184.5t-74.5 276zM268 1602l279 366h258l278 -366h-245l-162 170l-162 -170h-246z" />
<glyph unicode="&#xdc;" horiz-adv-x="1351" d="M123 512v946h358v-938q0 -101 51.5 -157t141.5 -56t143 56.5t53 156.5v938h359v-946q0 -155 -75.5 -276t-201.5 -184.5t-278 -63.5t-277 63.5t-199.5 184.5t-74.5 276zM307 1599v297h275v-297h-275zM770 1599v297h274v-297h-274z" />
<glyph unicode="&#xdd;" horiz-adv-x="1239" d="M0 1458h391l230 -524l227 524h391l-440 -864v-594h-359v594zM500 1602l100 368h344l-242 -368h-202z" />
<glyph unicode="&#xde;" horiz-adv-x="1284" d="M147 0v1458h359v-252h219q118 0 214 -39.5t157 -105.5t94 -149.5t33 -174.5t-33 -174.5t-94 -149.5t-157 -105.5t-214 -39.5h-219v-268h-359zM506 590h203q70 0 112.5 43.5t42.5 103.5t-42.5 104t-112.5 44h-203v-295z" />
<glyph unicode="&#xdf;" horiz-adv-x="1196" d="M127 0v1063q0 109 38 190t106.5 127t154.5 68t192 22q220 0 348 -92.5t128 -277.5q0 -150 -125 -223q57 -28 91 -75.5t34 -135.5v-312q0 -173 -86 -262q-92 -92 -283 -92h-107v283h39q48 0 72 24q27 24 27 74v264q0 47 -25 72q-23 26 -74 26h-39v258h48q90 0 90 86 q0 38 -25 60q-36 31 -113 31q-87 0 -120 -34.5t-33 -109.5v-1034h-338z" />
<glyph unicode="&#xe0;" horiz-adv-x="1097" d="M55 346q0 64 22.5 120.5t66.5 101.5t117.5 71.5t168.5 26.5h223v28q0 74 -38.5 105.5t-127.5 31.5q-62 0 -98.5 -16t-77.5 -57l-209 209q84 84 172 115.5t230 31.5q238 0 361.5 -100t123.5 -299v-715h-327v90q-54 -54 -108 -77t-138 -23q-166 0 -264 98q-97 97 -97 258z M219 1618h344l101 -369h-203zM377 354q0 -39 28.5 -65.5t81.5 -26.5q52 0 79.5 8t54.5 33q32 29 32 111v28h-170q-49 0 -77.5 -24.5t-28.5 -63.5z" />
<glyph unicode="&#xe1;" horiz-adv-x="1097" d="M55 346q0 64 22.5 120.5t66.5 101.5t117.5 71.5t168.5 26.5h223v28q0 74 -38.5 105.5t-127.5 31.5q-62 0 -98.5 -16t-77.5 -57l-209 209q84 84 172 115.5t230 31.5q238 0 361.5 -100t123.5 -299v-715h-327v90q-54 -54 -108 -77t-138 -23q-166 0 -264 98q-97 97 -97 258z M377 354q0 -39 28.5 -65.5t81.5 -26.5q52 0 79.5 8t54.5 33q32 29 32 111v28h-170q-49 0 -77.5 -24.5t-28.5 -63.5zM426 1249l100 369h344l-241 -369h-203z" />
<glyph unicode="&#xe2;" horiz-adv-x="1097" d="M55 346q0 64 22.5 120.5t66.5 101.5t117.5 71.5t168.5 26.5h223v28q0 74 -38.5 105.5t-127.5 31.5q-62 0 -98.5 -16t-77.5 -57l-209 209q84 84 172 115.5t230 31.5q238 0 361.5 -100t123.5 -299v-715h-327v90q-54 -54 -108 -77t-138 -23q-166 0 -264 98q-97 97 -97 258z M137 1249l279 367h258l278 -367h-245l-162 170l-162 -170h-246zM377 354q0 -39 28.5 -65.5t81.5 -26.5q52 0 79.5 8t54.5 33q32 29 32 111v28h-170q-49 0 -77.5 -24.5t-28.5 -63.5z" />
<glyph unicode="&#xe3;" horiz-adv-x="1097" d="M55 346q0 64 22.5 120.5t66.5 101.5t117.5 71.5t168.5 26.5h223v28q0 74 -38.5 105.5t-127.5 31.5q-62 0 -98.5 -16t-77.5 -57l-209 209q84 84 172 115.5t230 31.5q238 0 361.5 -100t123.5 -299v-715h-327v90q-54 -54 -108 -77t-138 -23q-166 0 -264 98q-97 97 -97 258z M150 1427q69 69 124.5 99t124.5 30q92 0 166 -45q58 -34 113 -34q32 0 58.5 10.5t60.5 44.5l143 -141q-69 -69 -125.5 -99t-126.5 -30q-92 0 -166 45q-58 34 -114 34q-32 0 -58.5 -10.5t-60.5 -44.5zM377 354q0 -39 28.5 -65.5t81.5 -26.5q52 0 79.5 8t54.5 33q32 29 32 111 v28h-170q-49 0 -77.5 -24.5t-28.5 -63.5z" />
<glyph unicode="&#xe4;" horiz-adv-x="1097" d="M55 346q0 64 22.5 120.5t66.5 101.5t117.5 71.5t168.5 26.5h223v28q0 74 -38.5 105.5t-127.5 31.5q-62 0 -98.5 -16t-77.5 -57l-209 209q84 84 172 115.5t230 31.5q238 0 361.5 -100t123.5 -299v-715h-327v90q-54 -54 -108 -77t-138 -23q-166 0 -264 98q-97 97 -97 258z M176 1247v297h275v-297h-275zM377 354q0 -39 28.5 -65.5t81.5 -26.5q52 0 79.5 8t54.5 33q32 29 32 111v28h-170q-49 0 -77.5 -24.5t-28.5 -63.5zM639 1247v297h274v-297h-274z" />
<glyph unicode="&#xe5;" horiz-adv-x="1097" d="M55 346q0 64 22.5 120.5t66.5 101.5t117.5 71.5t168.5 26.5h223v28q0 74 -38.5 105.5t-127.5 31.5q-62 0 -98.5 -16t-77.5 -57l-209 209q84 84 172 115.5t230 31.5q238 0 361.5 -100t123.5 -299v-715h-327v90q-54 -54 -108 -77t-138 -23q-166 0 -264 98q-97 97 -97 258z M262 1497q0 117 83 200t200 83t199.5 -82.5t82.5 -200.5q0 -117 -82.5 -200t-199.5 -83t-200 83t-83 200zM377 354q0 -39 28.5 -65.5t81.5 -26.5q52 0 79.5 8t54.5 33q32 29 32 111v28h-170q-49 0 -77.5 -24.5t-28.5 -63.5zM438 1497q0 -43 32 -74.5t75 -31.5t74.5 31.5 t31.5 74.5t-31.5 75t-74.5 32t-75 -32t-32 -75z" />
<glyph unicode="&#xe6;" horiz-adv-x="1720" d="M55 346q0 64 22.5 120.5t66.5 101.5t117.5 71.5t168.5 26.5h223v28q0 74 -38.5 105.5t-127.5 31.5q-62 0 -98.5 -16t-77.5 -57l-209 209q84 84 172 115.5t230 31.5q227 0 348 -92q121 92 295 92q231 0 363 -148.5t132 -373.5v-150h-659q0 -71 52.5 -121.5t142.5 -50.5 q82 0 130 21.5t97 70.5l201 -200q-90 -90 -186 -132t-242 -42q-252 0 -385 133q-91 -84 -174 -108.5t-203 -24.5q-164 0 -264 100q-97 97 -97 258zM377 354q0 -39 28.5 -65.5t81.5 -26.5q52 0 79.5 8t54.5 33q32 29 32 111v28h-170q-49 0 -77.5 -24.5t-28.5 -63.5zM983 666 h328q0 47 -19 86q-37 86 -145 86q-109 0 -146 -86q-18 -37 -18 -86z" />
<glyph unicode="&#xe7;" horiz-adv-x="972" d="M78 551q0 138 34 242.5t85 164t120.5 96.5t130 48.5t125.5 11.5q222 0 363 -141l-227 -228q-66 66 -136 66q-61 0 -104 -43q-55 -58 -55 -217t55 -217q43 -43 104 -43q71 0 136 65l227 -227q-141 -141 -363 -141q-65 0 -125.5 11.5t-130 48.5t-120.5 96.5t-85 164 t-34 242.5zM309 -410l137 295h236l-74 -295h-299z" />
<glyph unicode="&#xe8;" horiz-adv-x="1144" d="M78 551q0 265 135.5 414t357.5 149q155 0 269 -71t170.5 -188t56.5 -263v-150h-659q0 -71 52 -121.5t142 -50.5q82 0 130 21.5t97 70.5l201 -200q-90 -90 -186 -132t-242 -42q-524 0 -524 563zM254 1618h344l100 -369h-202zM408 666h327q0 49 -18 86q-37 86 -146 86 q-108 0 -145 -86q-18 -37 -18 -86z" />
<glyph unicode="&#xe9;" horiz-adv-x="1144" d="M78 551q0 265 135.5 414t357.5 149q155 0 269 -71t170.5 -188t56.5 -263v-150h-659q0 -71 52 -121.5t142 -50.5q82 0 130 21.5t97 70.5l201 -200q-90 -90 -186 -132t-242 -42q-524 0 -524 563zM408 666h327q0 49 -18 86q-37 86 -146 86q-108 0 -145 -86q-18 -37 -18 -86z M461 1249l100 369h344l-241 -369h-203z" />
<glyph unicode="&#xea;" horiz-adv-x="1144" d="M78 551q0 265 135.5 414t357.5 149q155 0 269 -71t170.5 -188t56.5 -263v-150h-659q0 -71 52 -121.5t142 -50.5q82 0 130 21.5t97 70.5l201 -200q-90 -90 -186 -132t-242 -42q-524 0 -524 563zM172 1249l279 367h258l278 -367h-246l-161 170l-162 -170h-246zM408 666h327 q0 49 -18 86q-37 86 -146 86q-108 0 -145 -86q-18 -37 -18 -86z" />
<glyph unicode="&#xeb;" horiz-adv-x="1144" d="M78 551q0 265 135.5 414t357.5 149q155 0 269 -71t170.5 -188t56.5 -263v-150h-659q0 -71 52 -121.5t142 -50.5q82 0 130 21.5t97 70.5l201 -200q-90 -90 -186 -132t-242 -42q-524 0 -524 563zM211 1247v297h274v-297h-274zM408 666h327q0 49 -18 86q-37 86 -146 86 q-108 0 -145 -86q-18 -37 -18 -86zM674 1247v297h274v-297h-274z" />
<glyph unicode="&#xec;" horiz-adv-x="589" d="M2 1618h344l100 -369h-202zM127 0v1059h336v-1059h-336z" />
<glyph unicode="&#xed;" horiz-adv-x="589" d="M127 0v1059h336v-1059h-336zM143 1249l101 369h344l-242 -369h-203z" />
<glyph unicode="&#xee;" horiz-adv-x="589" d="M-109 1249l279 367h258l279 -367h-246l-162 170l-162 -170h-246zM127 0v1059h336v-1059h-336z" />
<glyph unicode="&#xef;" horiz-adv-x="589" d="M-70 1247v297h275v-297h-275zM127 0v1059h336v-1059h-336zM393 1247v297h275v-297h-275z" />
<glyph unicode="&#xf0;" horiz-adv-x="1126" d="M104 530q0 157 25 247t92 161q54 57 141 96q77 34 158 37l-41 82h-231v233h117l-46 95h361l45 -95h199v-233h-84l53 -117q76 -168 102.5 -263t26.5 -243q0 -158 -25 -247t-92 -160q-125 -135 -342 -135t-342 135q-67 71 -92 160t-25 247zM440 530q0 -87 8 -135.5 t35 -75.5q28 -28 80 -28t80 28q27 27 35 75.5t8 135.5t-8 135.5t-35 75.5q-29 29 -80 29t-80 -29q-27 -27 -35 -75.5t-8 -135.5z" />
<glyph unicode="&#xf1;" horiz-adv-x="1185" d="M127 0v1102h328v-90q49 49 118 75.5t138 26.5q153 0 247 -94q65 -65 88 -140t23 -175v-705h-336v659q0 45 -14 77t-37 47t-43.5 21.5t-40.5 6.5t-40.5 -6.5t-43.5 -21.5t-37 -47t-14 -77v-659h-336zM203 1427q69 69 125 99t125 30q49 0 85 -9.5t80 -35.5q58 -34 113 -34 q32 0 58.5 10.5t60.5 44.5l143 -141q-69 -69 -125.5 -99t-126.5 -30q-92 0 -166 45q-58 34 -114 34q-32 0 -58.5 -10.5t-60.5 -44.5z" />
<glyph unicode="&#xf2;" horiz-adv-x="1126" d="M88 551q0 162 26 255t95 167q133 141 354 141q222 0 355 -141q68 -74 94 -166.5t26 -255.5q0 -164 -26 -256t-94 -166q-133 -141 -355 -141q-221 0 -354 141q-69 75 -95 166.5t-26 255.5zM238 1618h344l100 -369h-203zM424 551q0 -93 9.5 -146t39.5 -83q31 -31 90 -31 t90 31q30 30 39.5 83t9.5 146t-9.5 146t-39.5 83q-31 31 -90 31t-90 -31q-30 -30 -39.5 -83t-9.5 -146z" />
<glyph unicode="&#xf3;" horiz-adv-x="1126" d="M88 551q0 162 26 255t95 167q133 141 354 141q222 0 355 -141q68 -74 94 -166.5t26 -255.5q0 -164 -26 -256t-94 -166q-133 -141 -355 -141q-221 0 -354 141q-69 75 -95 166.5t-26 255.5zM424 551q0 -93 9.5 -146t39.5 -83q31 -31 90 -31t90 31q30 30 39.5 83t9.5 146 t-9.5 146t-39.5 83q-31 31 -90 31t-90 -31q-30 -30 -39.5 -83t-9.5 -146zM444 1249l101 369h344l-242 -369h-203z" />
<glyph unicode="&#xf4;" horiz-adv-x="1126" d="M88 551q0 162 26 255t95 167q133 141 354 141q222 0 355 -141q68 -74 94 -166.5t26 -255.5q0 -164 -26 -256t-94 -166q-133 -141 -355 -141q-221 0 -354 141q-69 75 -95 166.5t-26 255.5zM156 1249l278 367h258l279 -367h-246l-162 170l-162 -170h-245zM424 551 q0 -93 9.5 -146t39.5 -83q31 -31 90 -31t90 31q30 30 39.5 83t9.5 146t-9.5 146t-39.5 83q-31 31 -90 31t-90 -31q-30 -30 -39.5 -83t-9.5 -146z" />
<glyph unicode="&#xf5;" horiz-adv-x="1126" d="M88 551q0 162 26 255t95 167q133 141 354 141q222 0 355 -141q68 -74 94 -166.5t26 -255.5q0 -164 -26 -256t-94 -166q-133 -141 -355 -141q-221 0 -354 141q-69 75 -95 166.5t-26 255.5zM168 1427q69 69 125 99t125 30q92 0 166 -45q58 -34 112 -34q32 0 58.5 10.5 t60.5 44.5l143 -141q-69 -69 -125 -99t-126 -30q-92 0 -166 45q-58 34 -115 34q-32 0 -58.5 -10.5t-60.5 -44.5zM424 551q0 -93 9.5 -146t39.5 -83q31 -31 90 -31t90 31q30 30 39.5 83t9.5 146t-9.5 146t-39.5 83q-31 31 -90 31t-90 -31q-30 -30 -39.5 -83t-9.5 -146z" />
<glyph unicode="&#xf6;" horiz-adv-x="1126" d="M88 551q0 162 26 255t95 167q133 141 354 141q222 0 355 -141q68 -74 94 -166.5t26 -255.5q0 -164 -26 -256t-94 -166q-133 -141 -355 -141q-221 0 -354 141q-69 75 -95 166.5t-26 255.5zM195 1247v297h274v-297h-274zM424 551q0 -93 9.5 -146t39.5 -83q31 -31 90 -31 t90 31q30 30 39.5 83t9.5 146t-9.5 146t-39.5 83q-31 31 -90 31t-90 -31q-30 -30 -39.5 -83t-9.5 -146zM657 1247v297h275v-297h-275z" />
<glyph unicode="&#xf7;" d="M88 446v316h963v-316h-963zM410 0v319h319v-319h-319zM410 889v319h319v-319h-319z" />
<glyph unicode="&#xf8;" horiz-adv-x="1126" d="M88 551q0 162 26 255t95 167q133 141 354 141q120 0 213 -41l70 119h190l-125 -213q81 -85 104 -181.5t23 -246.5q0 -164 -26 -256t-94 -166q-133 -141 -355 -141q-120 0 -213 41l-69 -119h-191l125 213q-82 86 -104.5 180.5t-22.5 247.5zM424 551q0 -73 4 -102l205 348 q-25 14 -70 14q-59 0 -90 -31q-30 -30 -39.5 -83t-9.5 -146zM494 305q25 -14 69 -14q59 0 90 31q30 30 39.5 83t9.5 146q0 73 -4 102z" />
<glyph unicode="&#xf9;" horiz-adv-x="1185" d="M117 397v705h336v-660q0 -36 10 -64t24.5 -44t33.5 -26t35.5 -13.5t31.5 -3.5t31.5 3.5t35.5 13.5t33.5 26t24.5 44t10 64v660h336v-1102h-328v90q-49 -49 -118 -75.5t-138 -26.5q-154 0 -248 94q-65 65 -87.5 140t-22.5 175zM262 1618h344l101 -369h-203z" />
<glyph unicode="&#xfa;" horiz-adv-x="1185" d="M117 397v705h336v-660q0 -36 10 -64t24.5 -44t33.5 -26t35.5 -13.5t31.5 -3.5t31.5 3.5t35.5 13.5t33.5 26t24.5 44t10 64v660h336v-1102h-328v90q-49 -49 -118 -75.5t-138 -26.5q-154 0 -248 94q-65 65 -87.5 140t-22.5 175zM469 1249l100 369h344l-241 -369h-203z" />
<glyph unicode="&#xfb;" horiz-adv-x="1185" d="M117 397v705h336v-660q0 -36 10 -64t24.5 -44t33.5 -26t35.5 -13.5t31.5 -3.5t31.5 3.5t35.5 13.5t33.5 26t24.5 44t10 64v660h336v-1102h-328v90q-49 -49 -118 -75.5t-138 -26.5q-154 0 -248 94q-65 65 -87.5 140t-22.5 175zM180 1249l279 367h258l278 -367h-245 l-162 170l-162 -170h-246z" />
<glyph unicode="&#xfc;" horiz-adv-x="1185" d="M117 397v705h336v-660q0 -36 10 -64t24.5 -44t33.5 -26t35.5 -13.5t31.5 -3.5t31.5 3.5t35.5 13.5t33.5 26t24.5 44t10 64v660h336v-1102h-328v90q-49 -49 -118 -75.5t-138 -26.5q-154 0 -248 94q-65 65 -87.5 140t-22.5 175zM219 1247v297h275v-297h-275zM682 1247v297 h274v-297h-274z" />
<glyph unicode="&#xfd;" horiz-adv-x="1052" d="M0 1102h352l187 -572l178 572h352l-457 -1233q-34 -93 -86 -145q-88 -93 -247 -93h-127v303h71q47 0 71.5 16.5t41.5 65.5l31 93zM418 1249l100 369h344l-241 -369h-203z" />
<glyph unicode="&#xfe;" horiz-adv-x="1169" d="M127 -356v1814h336v-436q92 92 246 92q79 0 149 -26.5t117 -73.5q30 -30 50 -72t30.5 -78.5t15.5 -96t5.5 -91.5t0.5 -97v-28q0 -181 -10 -251q-20 -140 -92 -212q-47 -47 -117 -73.5t-149 -26.5q-154 0 -246 92v-436h-336zM463 551q0 -54 2.5 -89.5t10.5 -70.5t23 -55 t40.5 -32.5t62.5 -12.5t62.5 12.5t40.5 32.5t23 55t10.5 70.5t2.5 89.5t-2.5 89.5t-10.5 70.5t-23 55t-40.5 32.5t-62.5 12.5t-62.5 -12.5t-40.5 -32.5t-23 -55t-10.5 -70.5t-2.5 -89.5z" />
<glyph unicode="&#xff;" horiz-adv-x="1052" d="M0 1102h352l187 -572l178 572h352l-457 -1233q-34 -93 -86 -145q-88 -93 -247 -93h-127v303h71q47 0 71.5 16.5t41.5 65.5l31 93zM168 1247v297h274v-297h-274zM631 1247v297h274v-297h-274z" />
<glyph unicode="&#x11e;" horiz-adv-x="1325" d="M100 705v24q0 204 12 286q26 182 136 292q82 82 179 122.5t226 40.5q109 0 199.5 -27.5t153.5 -73t109 -109t71.5 -131t36.5 -142.5h-361q-22 85 -70.5 124.5t-138.5 39.5q-92 0 -141 -64q-28 -37 -40.5 -105.5t-12.5 -252.5t12.5 -253.5t40.5 -106.5q48 -62 141 -62 q105 0 160 58q55 55 55 155v21h-215v299h572v-203q0 -180 -33 -291t-115 -194q-89 -91 -191.5 -127.5t-232.5 -36.5q-241 0 -405 164q-43 43 -72.5 97t-44 99t-22 117t-8.5 114t-1 126zM317 1907h218q4 -52 38 -74.5t80 -22.5t80.5 22.5t38.5 74.5h217q-2 -70 -22.5 -126 t-53 -92t-76 -60t-89 -34t-95.5 -10t-95.5 10t-89 34t-76 60t-53 92t-22.5 126z" />
<glyph unicode="&#x11f;" horiz-adv-x="1148" d="M88 592q0 179 17 267.5t85 156.5q98 98 261 98q81 0 136 -24t109 -78v90h326v-1022q0 -197 -137 -323t-361 -126q-137 0 -234.5 31.5t-178.5 112.5l208 209q70 -70 189 -70q50 0 87 15.5t55.5 42t27 53.5t8.5 57v80q-92 -92 -237 -92q-161 0 -259 98q-68 68 -85 156.5 t-17 267.5zM227 1554h217q4 -52 38.5 -74t80.5 -22t80.5 22t38.5 74h217q-2 -87 -32 -151.5t-79.5 -100t-105.5 -52.5t-119 -17t-119 17t-105.5 52.5t-79.5 100t-32 151.5zM424 592q0 -40 1.5 -66.5t9 -58.5t21 -50.5t38.5 -31t61 -12.5t61 12.5t38.5 31t21 50.5t9 58.5 t1.5 66.5t-1.5 66.5t-9 58.5t-21 50.5t-38.5 31t-61 12.5t-61 -12.5t-38.5 -31t-21 -50.5t-9 -58.5t-1.5 -66.5z" />
<glyph unicode="&#x130;" horiz-adv-x="653" d="M147 0v1458h359v-1458h-359zM184 1608v282h283v-282h-283z" />
<glyph unicode="&#x131;" horiz-adv-x="589" d="M127 0v1059h336v-1059h-336z" />
<glyph unicode="&#x152;" horiz-adv-x="1949" d="M100 729q0 66 0.5 95t3 89t7.5 92.5t15.5 83t26.5 84.5t40 72.5t55 69.5q81 81 173.5 118t223.5 37q137 0 207 -65v53h991v-319h-633v-244h541v-320h-541v-256h633v-319h-991v53q-70 -65 -209 -65q-131 0 -222.5 37t-172.5 118q-31 31 -55 69.5t-40 72.5t-26.5 84.5 t-15.5 83t-7.5 92.5t-3 89t-0.5 95zM459 729q0 -184 12 -251.5t41 -104.5q51 -66 143 -66q93 0 144 66q29 37 41 104.5t12 251.5t-12.5 252.5t-40.5 105.5q-49 64 -144 64q-94 0 -143 -64q-28 -37 -40.5 -105.5t-12.5 -252.5z" />
<glyph unicode="&#x153;" horiz-adv-x="1769" d="M88 551q0 162 26 255t95 167q133 141 354 141q191 0 320 -108q123 108 313 108q155 0 269 -71t170.5 -188t56.5 -263v-150h-660q0 -71 52.5 -121.5t142.5 -50.5q82 0 130 21.5t97 70.5l201 -200q-90 -90 -186 -132t-242 -42q-225 0 -350 102q-126 -102 -314 -102 q-221 0 -354 141q-69 75 -95 166.5t-26 255.5zM424 551q0 -93 9.5 -146t39.5 -83q31 -31 90 -31t90 31q30 30 39.5 83t9.5 146t-9.5 146t-39.5 83q-31 31 -90 31t-90 -31q-30 -30 -39.5 -83t-9.5 -146zM1032 666h328q0 47 -19 86q-37 86 -145 86t-145 -86q-19 -39 -19 -86z " />
<glyph unicode="&#x15e;" horiz-adv-x="1214" d="M10 180l230 230q53 -53 140.5 -78t184.5 -25q209 0 209 131q0 53 -29 86q-31 31 -96 39l-176 25q-194 27 -293 129q-100 103 -100 293q0 203 143.5 331.5t388.5 128.5q161 0 280.5 -41t211.5 -133l-225 -225q-31 31 -67 50t-76.5 26t-63.5 8.5t-59 1.5h-4h-3h-4 q-87 0 -131.5 -40.5t-44.5 -94.5q0 -39 29 -68q35 -35 100 -43l176 -24q192 -26 287 -121q108 -105 108 -320q0 -144 -77.5 -249.5t-203.5 -157t-282 -51.5q-181 0 -315 42t-238 150zM379 -410l137 295h236l-74 -295h-299z" />
<glyph unicode="&#x15f;" horiz-adv-x="1032" d="M20 147l218 218q93 -93 268 -93q21 0 43.5 3.5t46 11t38.5 22.5t15 35q0 63 -80 70l-170 16q-319 30 -319 320q0 88 37.5 159t100 115t139.5 67t161 23q148 0 252.5 -29t181.5 -106l-207 -207q-66 66 -233 66q-55 0 -82 -20.5t-27 -43.5v-10.5t3.5 -13t10 -16.5t22 -12.5 t36.5 -8.5l170 -17q167 -17 249.5 -107t82.5 -229q0 -94 -38 -167t-105 -117t-151 -66t-183 -22q-61 0 -100.5 2t-95.5 10.5t-98.5 24.5t-92 47t-93.5 75zM307 -410l137 295h236l-74 -295h-299z" />
<glyph unicode="&#x178;" horiz-adv-x="1239" d="M0 1458h391l230 -524l227 524h391l-440 -864v-594h-359v594zM250 1599v297h274v-297h-274zM713 1599v297h274v-297h-274z" />
<glyph unicode="&#x2c6;" horiz-adv-x="1024" d="M104 1249l279 367h258l279 -367h-246l-162 170l-162 -170h-246z" />
<glyph unicode="&#x2da;" horiz-adv-x="1024" d="M229 1497q0 117 83 200t200 83t200 -82.5t83 -200.5q0 -117 -83 -200t-200 -83t-200 83t-83 200zM406 1497q0 -43 31.5 -74.5t74.5 -31.5t74.5 31.5t31.5 74.5t-31.5 75t-74.5 32t-74.5 -32t-31.5 -75z" />
<glyph unicode="&#x2dc;" horiz-adv-x="1024" d="M168 1427q69 69 125 99t125 30q92 0 166 -45q58 -34 112 -34q32 0 58.5 10.5t60.5 44.5l143 -141q-69 -69 -125 -99t-126 -30q-92 0 -166 45q-58 34 -115 34q-32 0 -58.5 -10.5t-60.5 -44.5z" />
<glyph unicode="&#x2000;" horiz-adv-x="1055" />
<glyph unicode="&#x2001;" horiz-adv-x="2111" />
<glyph unicode="&#x2002;" horiz-adv-x="1055" />
<glyph unicode="&#x2003;" horiz-adv-x="2111" />
<glyph unicode="&#x2004;" horiz-adv-x="703" />
<glyph unicode="&#x2005;" horiz-adv-x="527" />
<glyph unicode="&#x2006;" horiz-adv-x="351" />
<glyph unicode="&#x2007;" horiz-adv-x="351" />
<glyph unicode="&#x2008;" horiz-adv-x="263" />
<glyph unicode="&#x2009;" horiz-adv-x="422" />
<glyph unicode="&#x200a;" horiz-adv-x="117" />
<glyph unicode="&#x2010;" horiz-adv-x="872" d="M100 446v316h672v-316h-672z" />
<glyph unicode="&#x2011;" horiz-adv-x="872" d="M100 446v316h672v-316h-672z" />
<glyph unicode="&#x2012;" horiz-adv-x="872" d="M100 446v316h672v-316h-672z" />
<glyph unicode="&#x2013;" d="M100 446v316h938v-316h-938z" />
<glyph unicode="&#x2014;" horiz-adv-x="2238" d="M100 451v323h2038v-323h-2038z" />
<glyph unicode="&#x2018;" horiz-adv-x="569" d="M117 1159v299l336 246v-545h-336z" />
<glyph unicode="&#x2019;" horiz-adv-x="569" d="M117 915v543h336v-301z" />
<glyph unicode="&#x201a;" horiz-adv-x="565" d="M117 -242v543h336v-301z" />
<glyph unicode="&#x201c;" horiz-adv-x="1046" d="M117 1159v299l334 246v-545h-334zM594 1159v299l336 246v-545h-336z" />
<glyph unicode="&#x201d;" horiz-adv-x="1046" d="M117 915v543h334v-301zM594 915v543h336v-301z" />
<glyph unicode="&#x201e;" horiz-adv-x="1052" d="M117 -242v543h334v-301zM594 -242v543h336v-301z" />
<glyph unicode="&#x2022;" horiz-adv-x="962" d="M147 684q0 138 98 236t236 98t236 -98t98 -236t-98 -236t-236 -98t-236 98t-98 236z" />
<glyph unicode="&#x2026;" horiz-adv-x="1841" d="M117 0v348h348v-348h-348zM745 0v348h349v-348h-349zM1376 0v348h348v-348h-348z" />
<glyph unicode="&#x202f;" horiz-adv-x="422" />
<glyph unicode="&#x2039;" horiz-adv-x="743" d="M61 573l560 553v-395l-162 -158l162 -159v-396z" />
<glyph unicode="&#x203a;" horiz-adv-x="743" d="M123 18v396l164 159l-164 158v395l559 -553z" />
<glyph unicode="&#x205f;" horiz-adv-x="527" />
<glyph unicode="&#x20ac;" horiz-adv-x="1409" d="M72 459v209h145v127h-145v209h155q23 188 138 303q163 163 405 163q141 0 254.5 -50.5t193 -159t105.5 -265.5h-365q-20 72 -62 114t-124 42q-94 0 -141 -61q-29 -42 -37 -86h219v-209h-238v-127h238v-209h-221q12 -56 39 -90q48 -62 141 -62q82 0 124 42t62 114h365 q-26 -157 -105.5 -265.5t-193 -159t-254.5 -50.5q-241 0 -405 164q-115 115 -138 307h-155z" />
<glyph unicode="&#x2122;" horiz-adv-x="1992" d="M104 1245v213h668v-213h-215v-661h-238v661h-215zM897 584v874h240l239 -430l240 430h239v-874h-239v448l-137 -268h-205l-137 268v-448h-240z" />
<glyph unicode="&#x25fc;" horiz-adv-x="1105" d="M0 0v1106h1106v-1106h-1106z" />
</font>
</defs>
</svg>
